<?xml version="1.0" encoding="UTF-8"?>
<svg version="1.1" xmlns="http://www.w3.org/2000/svg" width="539" height="544">
<path d="M0 0 C2.25566959 0.54645129 4.51219789 1.08936901 6.76953125 1.62890625 C8.425896 2.02746826 8.425896 2.02746826 10.11572266 2.43408203 C25.63689806 6.09211986 40.94032816 7.77486819 56.84375 8.7578125 C63.22736578 9.15817222 69.52341346 9.81299582 75.85546875 10.703125 C78.20600174 11.03246522 80.56394111 11.31196766 82.92578125 11.546875 C90.49458053 12.37406618 96.36971315 14.26564851 103.1640625 17.6875 C106.19007193 19.12917199 109.1020538 20.11874679 112.3125 21.0625 C119.38423985 23.2917372 125.13715279 27.19266622 131.3125 31.1875 C132.53462781 31.86698419 133.76235032 32.53671707 135 33.1875 C143.48202718 38.30872396 150.54782505 45.18794967 157.69970703 51.9753418 C161.40054891 55.46964467 165.1696082 58.74183332 169.1875 61.875 C177.70839543 68.70684219 183.72304919 77.70955315 190.1953125 86.41015625 C193.71232652 91.02380379 197.52710376 95.32052151 201.53515625 99.51171875 C206.10306683 104.3694133 209.64368453 109.01066439 212.65234375 114.9609375 C213.93775499 117.45917205 215.27233564 119.86793617 216.69140625 122.2890625 C222.15848705 131.67737407 226.38942201 140.88791309 229.66748047 151.24389648 C230.35269749 153.30862499 231.12297667 155.32758951 231.91015625 157.35546875 C233.04815013 160.35122579 233.82731623 163.19603552 234.3125 166.375 C234.94883612 170.22431195 235.73413377 173.96728883 236.6875 177.75 C238.28441259 184.528731 239.37021243 191.36992832 240.4375 198.25 C240.69345947 199.88207397 240.69345947 199.88207397 240.95458984 201.54711914 C241.11652832 202.61567139 241.2784668 203.68422363 241.4453125 204.78515625 C241.58855957 205.72883057 241.73180664 206.67250488 241.87939453 207.64477539 C243.37388426 219.86943175 243.50840737 232.00624108 243.55078125 244.3046875 C243.55485678 245.31536411 243.5589323 246.32604073 243.56313133 247.3673439 C243.58390351 252.73171016 243.59823539 258.09605162 243.60766602 263.46044922 C243.61646302 267.82973443 243.63719982 272.1986951 243.66918945 276.56787109 C244.17508266 347.19350244 244.17508266 347.19350244 229.3125 377.1875 C226.62673067 382.79897771 224.21862738 388.30183594 222.375 394.25 C220.78651686 399.24696924 218.57253813 403.21650836 215.76171875 407.61328125 C213.67801759 411.31451862 212.48469912 415.17436047 211.26953125 419.23046875 C210.3125 422.1875 210.3125 422.1875 208.84375 425.5625 C207.517751 428.70159968 206.50720718 431.72145076 205.57592773 434.984375 C203.6927785 441.5749982 201.51871183 447.22902669 197.73046875 453.00390625 C196.33380156 455.15469678 195.18350189 457.32048683 194.0625 459.625 C192.3125 463.1875 192.3125 463.1875 190.3125 466.1875 C189.6525 466.1875 188.9925 466.1875 188.3125 466.1875 C188.003125 467.1775 188.003125 467.1775 187.6875 468.1875 C184.57057814 474.98805679 179.28771274 480.47857919 174.30078125 485.97265625 C173.06239983 487.35214989 171.84674014 488.75282848 170.66796875 490.18359375 C161.46512312 501.31209565 149.71843035 509.93457323 136.203125 514.9921875 C132.50349868 516.52203298 128.99362777 518.35349327 125.4375 520.1875 C111.0436674 527.52892594 95.91661678 531.24808355 79.875 532.8125 C78.61929199 532.94019775 77.36358398 533.06789551 76.06982422 533.19946289 C67.35579808 534.03306816 58.68647986 534.43172534 49.9375 534.625 C33.68993164 534.98432122 17.38217725 536.75122552 1.39575195 539.73120117 C-2.1989723 540.26319417 -5.7412232 540.38664638 -9.3671875 540.42578125 C-10.09761261 540.433853 -10.82803772 540.44192474 -11.58059692 540.45024109 C-13.12532225 540.46401732 -14.67007719 540.47476811 -16.21484375 540.48266602 C-17.762138 540.49409051 -19.3093959 540.51438784 -20.85644531 540.54418945 C-34.89581032 540.81371394 -47.06644106 538.7527345 -60.05859375 533.125 C-63.41269125 531.92888796 -66.82112148 531.27182022 -70.3125 530.625 C-79.47576799 528.90230562 -86.82590844 525.67341781 -95.25 521.734375 C-100.63813754 519.30971311 -106.15842649 517.26441086 -111.6875 515.1875 C-113.50248956 514.48557034 -115.31521593 513.777744 -117.125 513.0625 C-117.86621094 512.77117188 -118.60742188 512.47984375 -119.37109375 512.1796875 C-124.31622174 510.06153824 -129.0210792 507.48028814 -133.75073242 504.92749023 C-141.63434068 500.64535006 -141.63434068 500.64535006 -149.875 497.125 C-154.04347333 495.5795456 -157.79899269 493.49110081 -161.625 491.25 C-168.70310391 487.11597836 -175.81057708 483.55300317 -183.5390625 480.796875 C-191.06340793 478.11075691 -197.64668978 475.32694652 -204.296875 470.77734375 C-206.46640961 469.33453234 -208.57579122 468.21120575 -210.9375 467.125 C-215.13404712 465.1164693 -218.27081006 462.30065712 -221.6875 459.1875 C-222.85311536 458.22788825 -224.01978622 457.26955717 -225.1875 456.3125 C-236.65054747 446.37446993 -244.33708565 432.9213691 -251.56274414 419.76342773 C-253.56048356 416.13634225 -255.63612742 412.65658329 -258 409.25 C-263.43733252 401.33923786 -266.19440489 392.14750766 -269.25 383.125 C-271.8711408 375.43661206 -274.53636779 367.79011176 -277.44799805 360.20678711 C-278.21741956 358.20115039 -278.98371727 356.19433764 -279.75 354.1875 C-280.00587891 353.5275 -280.26175781 352.8675 -280.52539062 352.1875 C-283.36497646 344.71260054 -284.87715309 337.5787004 -285.5625 329.625 C-286.44729803 316.00798041 -286.44729803 316.00798041 -291.6875 304.1875 C-291.97208862 302.66658989 -292.20171433 301.1352911 -292.40625 299.6015625 C-292.53386719 298.67085938 -292.66148437 297.74015625 -292.79296875 296.78125 C-292.98826172 295.31171875 -292.98826172 295.31171875 -293.1875 293.8125 C-293.44533488 291.88767323 -293.70564607 289.96317612 -293.96875 288.0390625 C-294.08283203 287.18135254 -294.19691406 286.32364258 -294.31445312 285.43994141 C-294.65328454 283.02853032 -294.65328454 283.02853032 -295.6875 280.1875 C-295.92590456 275.67063507 -295.87269614 271.14747134 -295.875 266.625 C-295.88724609 265.38685547 -295.89949219 264.14871094 -295.91210938 262.87304688 C-295.92212641 256.56565438 -295.53989865 250.87950089 -294.12182617 244.74584961 C-293.03811755 238.36238551 -293.66208835 231.71079811 -293.85351562 225.26367188 C-294.01933346 215.17165527 -292.68873231 206.57539985 -287.1875 197.9375 C-284.62134618 193.76950903 -282.60675533 189.69357773 -280.6875 185.1875 C-279.78756942 183.67739976 -278.86875554 182.17848655 -277.9375 180.6875 C-272.21733523 171.30129447 -267.6699177 161.67176079 -265.296875 150.90625 C-263.88052896 144.58716766 -261.62931596 138.94322687 -258.6875 133.1875 C-258.378125 132.23875 -258.06875 131.29 -257.75 130.3125 C-256.41768749 126.39393381 -254.58225362 122.85858515 -252.6875 119.1875 C-252.0614672 117.91717512 -251.4364702 116.64633928 -250.8125 115.375 C-239.53188021 92.94442397 -225.54812258 73.95518018 -206.34765625 57.6328125 C-204.89536638 56.36846602 -203.53215298 55.0032693 -202.1875 53.625 C-197.3866413 48.94416277 -192.25382587 45.40903848 -186.3125 42.3125 C-182.47241532 40.29527357 -179.28541361 38.13961221 -176 35.3125 C-166.35921648 27.33444655 -154.85092352 23.06149177 -143.04296875 19.390625 C-139.99918774 18.29925765 -137.77540643 17.12067674 -135.125 15.3125 C-127.71997638 10.52318124 -118.92327601 8.53728281 -110.54492188 6.04882812 C-107.85617173 5.23834363 -105.1853843 4.38633293 -102.515625 3.515625 C-71.25874621 -6.5698133 -31.96425145 -8.2695104 0 0 Z " fill="#EDEDED" transform="translate(295.6875,3.8125)"/>
<path d="M0 0 C2.375 1.5 2.375 1.5 4 3 C3.65351423 8.77476276 2.21436557 12.14293934 -2 16 C-2.88171875 16.65613281 -3.7634375 17.31226563 -4.671875 17.98828125 C-10.8368513 22.57939455 -13.71683815 25.2946503 -15.15625 32.8515625 C-20.357132 52.25855738 -37.37685461 69.86886679 -54 80 C-64.83885172 86.17228664 -76.19215782 91.87326197 -89 91 C-85.74393788 87.0760277 -82.42708281 83.40839574 -78.75 79.875 C-75.06169474 76.23045429 -71.791633 72.40672078 -68.625 68.3125 C-68.20831055 67.77802246 -67.79162109 67.24354492 -67.36230469 66.69287109 C-63.89535228 62.1225406 -61.07238988 58.13550151 -60.875 52.3125 C-61.66668102 48.73967402 -61.66668102 48.73967402 -64.98828125 47.41015625 C-69.31624445 45.72969965 -73.75988213 44.95089128 -78.3125 44.125 C-87.8051897 42.24176844 -96.81565863 40.01173507 -102.99609375 31.96484375 C-104.85324287 28.33003438 -104.98579219 24.92800274 -104 21 C-102.0625 18.4375 -102.0625 18.4375 -99 17 C-92.64011005 16.26319804 -87.02804024 17.53803941 -81 19.4375 C-65.95181272 24.10087054 -48.62084796 25.80236514 -34.18359375 18.59375 C-27.85946282 15.09775063 -22.13968825 11.0054033 -16.53979492 6.46459961 C-11.40510347 2.34129917 -6.77444884 -0.88362376 0 0 Z " fill="#76C2EE" transform="translate(383,189)"/>
<path d="M0 0 C0.99386719 0.00902344 1.98773438 0.01804687 3.01171875 0.02734375 C4.15060547 0.04474609 4.15060547 0.04474609 5.3125 0.0625 C2.36955804 3.57967454 -0.54487841 6.97184139 -3.875 10.125 C-7.3807572 13.56801434 -10.40397009 17.33204577 -13.4375 21.1875 C-13.90953857 21.78570557 -14.38157715 22.38391113 -14.86791992 23.00024414 C-19.8187373 29.2001015 -19.8187373 29.2001015 -22.1875 36.625 C-22.00540078 40.08381021 -22.00540078 40.08381021 -19.859375 42.125 C-14.51736089 45.38810222 -8.50689634 45.95146917 -2.41015625 47.04101562 C6.54220552 48.77882703 14.49090946 51.78192627 20.27734375 59.1640625 C22.20553352 62.70028978 21.96216622 65.09953604 21.3125 69.0625 C19.10509319 72.03108157 17.82652627 72.89115791 14.3125 74.0625 C7.89339659 74.5897536 2.37985465 72.91680367 -3.75 71.125 C-19.4972291 66.60331063 -34.67377762 63.90959379 -49.6875 72.0625 C-53.97808108 74.76004945 -58.03120456 77.76784195 -62.0625 80.83447266 C-64.46407277 82.64936314 -66.91482245 84.39071786 -69.375 86.125 C-70.14199219 86.67285156 -70.90898437 87.22070312 -71.69921875 87.78515625 C-75.64343386 90.31906262 -79.10393223 90.30804827 -83.6875 90.0625 C-84.6775 89.4025 -85.6675 88.7425 -86.6875 88.0625 C-87.19921875 84.79296875 -87.19921875 84.79296875 -86.6875 81.0625 C-84.98581148 78.81245651 -83.56039421 77.21322077 -81.5 75.375 C-81.01724609 74.91544922 -80.53449219 74.45589844 -80.03710938 73.98242188 C-77.75363591 71.83381127 -75.42512847 69.86793235 -72.90625 68 C-70.43924617 65.84571497 -69.9994941 64.89419205 -69.375 61.75 C-63.44161163 39.14979035 -45.36520634 20.20073285 -25.8671875 8.3828125 C-20.38899792 5.23329549 -14.71328372 2.97220992 -8.6875 1.0625 C-5.53819107 0.01273036 -3.29935544 -0.03881595 0 0 Z " fill="#875CDC" transform="translate(265.6875,102.9375)"/>
<path d="M0 0 C4.63235294 2.26470588 4.63235294 2.26470588 6 5 C6.36908619 11.85158187 5.37223903 17.60164531 3.5625 24.1875 C-0.69488921 40.1556909 -3.04185934 56.51697629 5.375 71.5 C7.49796234 74.90862402 9.82390786 78.11785222 12.24609375 81.31640625 C12.8302002 82.09628906 13.41430664 82.87617188 14.01611328 83.6796875 C15.19123498 85.23842462 16.38310333 86.7847114 17.59326172 88.31640625 C21.3997744 93.35479647 23.34555726 97.58086251 23 104 C21.9375 106.5625 21.9375 106.5625 20 108 C17.3125 108.6875 17.3125 108.6875 14 108 C9.50066891 105.02738804 6.24430076 101.50405046 3.4375 96.9375 C-0.1354389 91.88878199 -5.49166546 90.50412882 -11.05859375 88.48046875 C-35.02056428 79.73152257 -52.75054034 60.87036934 -63.4375 38.125 C-66.53136757 30.58316215 -67.39303111 23.05803533 -68 15 C-63.72193017 18.51752408 -59.83356026 22.1877615 -56 26.1875 C-51.7124303 30.55387975 -47.1760027 34.47367395 -42.3125 38.1875 C-41.40467773 38.91005981 -41.40467773 38.91005981 -40.47851562 39.6472168 C-35.87176894 43.05423787 -32.71885649 43.84435473 -27 43 C-22.07455679 38.57013526 -21.17975192 30.18726018 -20 23.9375 C-18.2786326 15.0087813 -15.92369906 6.91370951 -8.5625 1.0625 C-5.4193568 -0.2407545 -3.37682636 -0.42210329 0 0 Z " fill="#4F4F4F" transform="translate(262,187)"/>
<path d="M0 0 C2.6953125 2.07421875 2.6953125 2.07421875 5.125 4.6875 C5.98351562 5.58984375 6.84203125 6.4921875 7.7265625 7.421875 C9.45573699 9.38279453 10.98913406 11.31585847 12.5 13.4375 C15.56650665 16.58066931 17.83973589 16.98204549 22 18.046875 C45.03950446 25.36671756 62.41447929 43.84904766 73.890625 64.3828125 C78.59216775 73.48919871 80.33267864 80.7793729 80 91 C76.0570118 87.6988936 72.27408705 84.30654028 68.56762695 80.73999023 C63.53973328 75.95155593 58.39805078 71.55825388 52.625 67.6875 C52.06675537 67.29651123 51.50851074 66.90552246 50.93334961 66.50268555 C47.86547034 64.53714745 45.9402492 63.99931105 42.2734375 63.95703125 C38.97933494 64.71553392 38.97933494 64.71553392 37.2109375 66.89453125 C35.11453012 72.27080179 34.16720225 77.89439473 33.0703125 83.54492188 C31.44521115 91.3229563 29.19166358 98.95678589 23.3125 104.5625 C19.24348646 107.0918868 15.76935172 107.79175009 11 107 C8.23445241 104.92583931 7.25437025 103.37783886 6.625 99.96875 C6.26702163 93.25665553 8.1660511 87.12594753 9.9765625 80.73046875 C13.6905806 67.19273103 15.88807632 51.30278104 9.14453125 38.46875 C5.20906328 31.55851581 0.80072581 25.26569829 -4.26953125 19.1328125 C-7.64973501 14.96669229 -10.18679012 11.26561726 -10.4375 5.75 C-10 2 -10 2 -8.9375 -0.0625 C-5.76390241 -1.59811174 -3.36396574 -0.77438704 0 0 Z " fill="#545454" transform="translate(291,88)"/>
<path d="M0 0 C6.63126012 4.92607895 10.25636906 12.54256025 11.58203125 20.546875 C12.0508884 29.75522951 10.10196354 35.92480339 3.96484375 42.8203125 C-2.3599794 49.05551265 -9.65710608 51.8729082 -18.47265625 52.2578125 C-26.96718021 51.99607647 -34.06411446 48.79135429 -40.03515625 42.8203125 C-45.00315162 36.57483261 -47.69530541 29.22407014 -47.38671875 21.21484375 C-46.30076183 13.81827053 -43.534284 6.96080148 -38.03515625 1.8203125 C-25.5890034 -6.76044979 -13.42137979 -7.77976333 0 0 Z " fill="#282687" transform="translate(358.03515625,334.1796875)"/>
<path d="M0 0 C0.99 0 1.98 0 3 0 C4.42639852 1.98986161 5.61519362 3.89848572 6.80078125 6.02734375 C7.33906807 6.96085411 7.33906807 6.96085411 7.88822937 7.91322327 C9.04030579 9.91542796 10.17692873 11.92589599 11.3125 13.9375 C12.80391073 16.55347607 14.30142475 19.1659152 15.80078125 21.77734375 C16.34075241 22.72110367 16.34075241 22.72110367 16.89163208 23.68392944 C19.72161237 28.59909026 22.74739004 33.35172467 26 38 C26.44802979 37.23969482 26.89605957 36.47938965 27.35766602 35.69604492 C29.05407461 32.81933607 30.75219877 29.94365358 32.45141602 27.06860352 C33.18027358 25.83462251 33.908486 24.60026017 34.63598633 23.36547852 C36.73470186 19.80389018 38.84530604 16.24989014 40.97540283 12.70697021 C41.983556 11.02739557 42.98379093 9.34307622 43.98388672 7.65869141 C44.90258545 6.15121338 44.90258545 6.15121338 45.83984375 4.61328125 C46.37859131 3.72036377 46.91733887 2.82744629 47.47241211 1.9074707 C47.97651611 1.27800537 48.48062012 0.64854004 49 0 C49.99 0 50.98 0 52 0 C52.7179635 6.68883422 53.42933577 13.37834639 54.13623047 20.06835938 C54.37724212 22.34195653 54.61973643 24.61539704 54.86376953 26.88867188 C55.21521013 30.16495896 55.56123339 33.44178095 55.90625 36.71875 C56.0156189 37.72740112 56.12498779 38.73605225 56.2376709 39.77526855 C56.80516114 45.21974942 57.11356617 50.52611038 57 56 C55.35425434 56.02688151 53.70838587 56.04634123 52.0625 56.0625 C50.68771484 56.07990234 50.68771484 56.07990234 49.28515625 56.09765625 C47 56 47 56 46 55 C45.78479034 53.40423529 45.62911685 51.80033869 45.5 50.1953125 C45.4175 49.21949219 45.335 48.24367188 45.25 47.23828125 C45.1675 46.21089844 45.085 45.18351562 45 44.125 C44.83668244 42.10649706 44.67015551 40.08825052 44.5 38.0703125 C44.39171875 36.72090576 44.39171875 36.72090576 44.28125 35.34423828 C44.06165608 32.85002111 44.06165608 32.85002111 43 30 C38.05 38.58 33.1 47.16 28 56 C26.68 56 25.36 56 24 56 C22.5078125 54.27514648 22.5078125 54.27514648 21.125 51.87109375 C20.35929687 50.56495117 20.35929687 50.56495117 19.578125 49.23242188 C19.05734375 48.31009766 18.5365625 47.38777344 18 46.4375 C17.47921875 45.54224609 16.9584375 44.64699219 16.421875 43.72460938 C14.93271006 41.15805616 13.4640227 38.58096279 12 36 C10.68 33.69 9.36 31.38 8 29 C7.01 37.91 6.02 46.82 5 56 C1.7 56 -1.6 56 -5 56 C-5.33454301 45.59439341 -4.42542676 35.43135646 -3.34594727 25.09423828 C-3.05948844 22.34610874 -2.78392393 19.59703759 -2.50976562 16.84765625 C-2.33135798 15.09368593 -2.15234419 13.33977713 -1.97265625 11.5859375 C-1.89032242 10.76725189 -1.80798859 9.94856628 -1.72315979 9.10507202 C-1.38726012 5.92001844 -1.01620289 3.04860866 0 0 Z " fill="#19184E" transform="translate(203,329)"/>
<path d="M0 0 C1.4296811 0.01006818 2.85936921 0.01918712 4.2890625 0.02734375 C7.73452479 0.0490114 11.1797146 0.08332057 14.625 0.125 C14.625 0.455 14.625 0.785 14.625 1.125 C14.06965576 1.18445801 13.51431152 1.24391602 12.94213867 1.30517578 C-48.46418119 8.0913021 -102.7968923 32.95614145 -149.375 73.125 C-150.47607437 74.02273444 -151.57763037 74.91987851 -152.6796875 75.81640625 C-155.39352965 77.8384034 -155.39352965 77.8384034 -156.375 80.125 C-157.035 80.125 -157.695 80.125 -158.375 80.125 C-158.58253906 80.66382812 -158.79007813 81.20265625 -159.00390625 81.7578125 C-160.90761011 85.04454909 -163.58386254 87.40742192 -166.3125 90 C-177.99339513 101.4172947 -187.09322741 114.74499274 -196.375 128.125 C-196.705 127.465 -197.035 126.805 -197.375 126.125 C-196.5096684 124.25588375 -195.6241683 122.39440421 -194.66015625 120.57421875 C-193.77540683 118.88808535 -192.93102898 117.18035138 -192.12109375 115.45703125 C-188.298948 107.38805689 -183.58835517 100.13394642 -178.52514648 92.80981445 C-177.45539048 91.24276156 -176.42703025 89.64766892 -175.40234375 88.05078125 C-173.1876701 84.85465299 -170.7155852 82.01662802 -168.0625 79.1875 C-167.57612061 78.66389893 -167.08974121 78.14029785 -166.58862305 77.60083008 C-161.03928248 71.65188543 -155.37788787 66.0506162 -149.2109375 60.74609375 C-147.70543529 59.41676733 -146.27750929 58.00007202 -144.875 56.5625 C-140.0741413 51.88166277 -134.94132587 48.34653848 -129 45.25 C-125.15991532 43.23277357 -121.97291361 41.07711221 -118.6875 38.25 C-109.04671648 30.27194655 -97.53842352 25.99899177 -85.73046875 22.328125 C-82.68668774 21.23675765 -80.46290643 20.05817674 -77.8125 18.25 C-70.41569085 13.46599408 -61.62796387 11.47753932 -53.25878906 8.99072266 C-50.49374141 8.16064655 -47.74234173 7.29596893 -44.9921875 6.41796875 C-43.28662255 5.88228935 -41.58090023 5.34711071 -39.875 4.8125 C-39.12428223 4.57015625 -38.37356445 4.3278125 -37.60009766 4.078125 C-25.23447499 0.28896211 -12.80683965 -0.15978402 0 0 Z " fill="#FEFEFE" transform="translate(238.375,0.875)"/>
<path d="M0 0 C1.92907715 0.19836426 1.92907715 0.19836426 4 1 C5.17541504 2.6541748 5.17541504 2.6541748 6.13476562 4.82617188 C6.50194702 5.6379187 6.86912842 6.44966553 7.24743652 7.28601074 C7.62984497 8.1713147 8.01225342 9.05661865 8.40625 9.96875 C8.81282837 10.87822388 9.21940674 11.78769775 9.63830566 12.72473145 C10.93945962 15.64386704 12.21989797 18.57158033 13.5 21.5 C14.36193029 23.4433081 15.22519642 25.38602429 16.08984375 27.328125 C18.05161555 31.74178205 20.0029229 36.15975483 21.93237305 40.58764648 C22.65830653 42.22792748 23.40272206 43.86012642 24.16333008 45.48461914 C24.53031006 46.27408936 24.89729004 47.06355957 25.27539062 47.87695312 C25.6068811 48.57534302 25.93837158 49.27373291 26.27990723 49.99328613 C27 52 27 52 27 56 C23.7 56 20.4 56 17 56 C16.01 54.02 15.02 52.04 14 50 C1.13 49.505 1.13 49.505 -12 49 C-12.66 51.31 -13.32 53.62 -14 56 C-17.63 56 -21.26 56 -25 56 C-24.26899896 52.34499482 -23.68576513 49.95860481 -22.20581055 46.70385742 C-21.83840256 45.88918503 -21.47099457 45.07451263 -21.092453 44.2351532 C-20.49561455 42.9334594 -20.49561455 42.9334594 -19.88671875 41.60546875 C-19.27048393 40.24619011 -19.27048393 40.24619011 -18.64179993 38.85945129 C-17.77251351 36.94449658 -16.90072467 35.03067613 -16.02661133 33.11791992 C-14.69802559 30.21053349 -13.37664041 27.29996503 -12.05664062 24.38867188 C-11.20875441 22.52324605 -10.36046017 20.65800562 -9.51171875 18.79296875 C-9.11989914 17.93124557 -8.72807953 17.0695224 -8.3243866 16.1816864 C-1.70383484 1.70383484 -1.70383484 1.70383484 0 0 Z " fill="#10102D" transform="translate(165,329)"/>
<path d="M0 0 C0.474375 0.433125 0.94875 0.86625 1.4375 1.3125 C0.31298273 4.2844385 -0.78543791 6.64690687 -2.5625 9.3125 C-5.31982824 8.82591266 -7.80433206 8.22312728 -10.4375 7.25 C-15.58305521 5.70633344 -19.74405034 5.71246311 -24.6875 7.8125 C-29.19047756 10.32680848 -31.80756063 13.46013307 -33.5625 18.3125 C-34.5116358 24.1585046 -34.38207076 29.80987942 -30.94921875 34.80859375 C-27.66661836 38.36859699 -24.08174693 40.94720919 -19.21875 41.65234375 C-15.24232824 41.71199008 -11.42229689 41.30857662 -7.5625 40.3125 C-7.5625 37.6725 -7.5625 35.0325 -7.5625 32.3125 C-10.8625 32.3125 -14.1625 32.3125 -17.5625 32.3125 C-17.5625 29.3425 -17.5625 26.3725 -17.5625 23.3125 C-10.9625 23.3125 -4.3625 23.3125 2.4375 23.3125 C2.4375 31.2325 2.4375 39.1525 2.4375 47.3125 C-7.84350564 51.88183584 -16.93888385 54.7219136 -27.875 50.625 C-35.87102776 47.01348191 -40.80988721 41.65923748 -44.3125 33.5625 C-47.35956267 24.6906656 -45.52593875 16.59255522 -41.5625 8.3125 C-37.70409683 2.29793035 -31.39235996 -2.09973108 -24.578125 -4.33984375 C-15.92305006 -5.83267644 -7.40097705 -4.87381415 0 0 Z " fill="#2F2EA6" transform="translate(420.5625,333.6875)"/>
<path d="M0 0 C2.5 1.6875 2.5 1.6875 4 3 C3.40072174 6.35595828 2.15377564 8.37801226 0 11 C-4.60273973 10.23287671 -4.60273973 10.23287671 -6.8125 8.9375 C-10.29189258 7.44633175 -13.22576285 7.7603659 -17 8 C-20.19997155 9.6408946 -20.19997155 9.6408946 -20.5625 12.375 C-20.22671109 15.18111728 -20.22671109 15.18111728 -17.8125 17 C-13.52063171 19.54029436 -8.72462611 21.0425087 -4.0703125 22.78125 C0.50564796 24.59766179 3.679603 26.4155236 6.875 30.25 C8.89341587 35.18390545 8.60210892 39.29402472 6.875 44.1875 C3.37886095 49.43170857 -0.81230144 52.71576068 -7 54 C-15.40029547 54.86258958 -22.75058097 53.67343451 -29.76953125 48.76171875 C-31.1875 47.5 -31.1875 47.5 -33 45 C-33.09328009 41.92175717 -32.0196554 41.02144226 -29.9375 38.75 C-29.298125 38.1725 -28.65875 37.595 -28 37 C-25.43771333 38.2298976 -23.19211068 39.53859288 -20.8125 41.125 C-16.03274255 43.89602318 -11.01106951 43.68928097 -5.73046875 42.48046875 C-5.15941406 42.32191406 -4.58835937 42.16335938 -4 42 C-3.49874717 38.66857722 -3.49874717 38.66857722 -4 35 C-7.59694438 31.50582546 -11.83440895 30.28476961 -16.5 28.5625 C-22.19723782 26.44471262 -26.88866362 24.5385115 -30.12109375 19.12109375 C-31.64323624 15.44765655 -31.54270657 11.90070348 -31 8 C-28.61104306 3.13020316 -25.66669958 0.68086997 -21 -2 C-13.6802626 -4.43991247 -6.84262422 -3.18535955 0 0 Z " fill="#3533C1" transform="translate(465,332)"/>
<path d="M0 0 C13.2 0 26.4 0 40 0 C40 2.97 40 5.94 40 9 C39 10 39 10 36.22436523 10.11352539 C35.01466064 10.10828857 33.80495605 10.10305176 32.55859375 10.09765625 C31.25341797 10.09443359 29.94824219 10.09121094 28.60351562 10.08789062 C27.2148431 10.07953401 25.82617123 10.07106905 24.4375 10.0625 C23.04492344 10.05748666 21.65234519 10.05292347 20.25976562 10.04882812 C16.83982549 10.03699442 13.4199075 10.01905831 10 10 C10 15.94 10 21.88 10 28 C17.92 28 25.84 28 34 28 C34 30.97 34 33.94 34 37 C26.08 37 18.16 37 10 37 C10 42.94 10 48.88 10 55 C6.7 55 3.4 55 0 55 C0 36.85 0 18.7 0 0 Z " fill="#07060E" transform="translate(96,330)"/>
<path d="M0 0 C3.97190025 2.31560176 6.88901139 6.04364778 8.9296875 10.125 C9.43147315 16.57101568 9.89198024 22.70986659 5.9296875 28.125 C1.14359057 32.80473922 -2.83752302 34.76580117 -9.4453125 35.5 C-15.21352689 34.90328817 -19.39981937 32.83945347 -23.4453125 28.6875 C-27.10495462 22.91652589 -27.90845261 17.90438644 -27.0703125 11.125 C-25.22846353 5.40093045 -21.20254027 2.00666849 -16.0703125 -0.875 C-10.47308586 -2.74074221 -5.38677406 -2.17986188 0 0 Z " fill="#EDEDEF" transform="translate(349.0703125,340.875)"/>
<path d="M0 0 C2.08769717 2.67527529 3.82424744 5.34978182 5.41796875 8.34375 C5.86358154 9.17205322 6.30919434 10.00035645 6.76831055 10.85375977 C7.47080933 12.16364868 7.47080933 12.16364868 8.1875 13.5 C12.42899979 21.30349186 16.84532389 28.75789307 22 36 C22.64453125 36.9178125 23.2890625 37.835625 23.953125 38.78125 C30.71291806 48.25560563 38.10054644 57.13141592 45.9453125 65.72265625 C47.70565798 67.6737616 49.39184323 69.66013544 51.0625 71.6875 C53.71141274 74.7996106 56.63721749 77.4213512 59.75 80.0625 C62.29052327 82.25017281 64.73279115 84.5290499 67.1875 86.8125 C72.34208827 91.52671028 77.76536663 95.77580734 83.34765625 99.96875 C86 102 86 102 88 104 C80.0316822 102.97182996 73.11728677 98.58810326 66.4140625 94.4375 C64.25120208 93.14958311 62.09396322 92.0570486 59.8125 91 C55.60483126 88.95530957 52.43625154 86.1309809 49 83 C47.83438464 82.04038825 46.66771378 81.08205717 45.5 80.125 C34.03695253 70.18696993 26.35041435 56.7338691 19.12475586 43.57592773 C17.12701644 39.94884225 15.05137258 36.46908329 12.6875 33.0625 C8.06928796 26.29333989 5.50260449 18.79113214 2.75 11.125 C2.34394531 9.99964844 2.34394531 9.99964844 1.9296875 8.8515625 C0.85167197 5.78421934 0 3.2756894 0 0 Z " fill="#FEFEFE" transform="translate(25,380)"/>
<path d="M0 0 C3.3 0 6.6 0 10 0 C10 15.18 10 30.36 10 46 C18.91 46 27.82 46 37 46 C37 48.97 37 51.94 37 55 C24.79 55 12.58 55 0 55 C0 36.85 0 18.7 0 0 Z " fill="#1E1D68" transform="translate(270,330)"/>
<path d="M0 0 C3.94322151 2.05515358 6.4302283 4.11037878 7.96875 8.2734375 C8.64510093 13.32070632 8.54497855 17.09963861 6.28125 21.7109375 C3.4691105 24.82709208 0.66753184 26.42404658 -3.03125 28.2734375 C-7.73892486 28.4052524 -11.75807795 27.94027236 -15.46875 24.8984375 C-19.10178345 21.17679348 -20.33526513 19.09314351 -20.40625 13.9609375 C-20.30673644 8.93881974 -19.53490551 6.06117319 -16.03125 2.2734375 C-11.44378976 -1.65867128 -5.5997399 -2.00298389 0 0 Z " fill="#535353" transform="translate(289.03125,237.7265625)"/>
<path d="M0 0 C3.95583124 2.06172561 6.45483962 4.08792055 7.96875 8.2734375 C8.56859018 12.68125186 9.02016329 17.12301609 7.01953125 21.21484375 C4.53805026 24.33822204 1.61601223 26.71032512 -2.03125 28.2734375 C-7.26155176 28.84401587 -10.60964146 28.12291856 -15.03125 25.2734375 C-19.47562647 20.3485879 -20.3875986 17.32182263 -20.3125 10.81640625 C-19.78577962 6.05397611 -17.36371537 3.41555067 -13.84375 0.3984375 C-9.23944071 -1.44328621 -4.71308238 -1.68583331 0 0 Z " fill="#885DDC" transform="translate(229.03125,177.7265625)"/>
<path d="M0 0 C3.94322151 2.05515358 6.4302283 4.11037878 7.96875 8.2734375 C8.64909317 13.35049841 8.56519621 17.10184672 6.21875 21.7109375 C3.48399044 24.82552478 1.56585466 27.00564503 -2.6171875 27.70703125 C-8.57298084 27.7153727 -12.45516778 27.50631356 -17.03125 23.2734375 C-20.41695467 19.43630554 -20.54416172 15.63942288 -20.3828125 10.7109375 C-19.70732752 6.02757496 -17.33048939 3.38707127 -13.84375 0.3984375 C-9.23944071 -1.44328621 -4.71308238 -1.68583331 0 0 Z " fill="#77C4F1" transform="translate(349.03125,177.7265625)"/>
<path d="M0 0 C4.32548892 2.20355096 7.56153147 4.77957369 10 9 C10.9212871 14.58983184 10.2865662 19.28925511 7 24 C3.40349187 27.41668272 0.39773174 28.3331616 -4.4375 28.625 C-9.51466776 28.45183602 -12.15137313 27.09974613 -15.7578125 23.60546875 C-18.69041707 19.81521568 -18.38789599 15.31239461 -18.3515625 10.734375 C-17.795264 6.40760887 -16.23525646 4.86761368 -13 2 C-8.74832285 -0.52826069 -4.83748583 -0.68145453 0 0 Z " fill="#525252" transform="translate(287,117)"/>
<path d="M0 0 C4.42619634 2.27632955 7.25027378 4.83612887 10 9 C10.67649607 12.02673671 10.46211106 13.81656826 10 17 C7.79259319 19.96858157 6.51402627 20.82865791 3 22 C-2.2279333 22.30417066 -6.44370355 21.52191892 -11.4375 20 C-12.67371094 19.62875 -13.90992188 19.2575 -15.18359375 18.875 C-16.11300781 18.58625 -17.04242188 18.2975 -18 18 C-17.01 17.67 -16.02 17.34 -15 17 C-15 16.34 -15 15.68 -15 15 C-13.49609375 13.5546875 -13.49609375 13.5546875 -11.4375 11.875 C-7.17201531 8.26340423 -3.56689436 4.29141978 0 0 Z " fill="#8D62E1" transform="translate(277,155)"/>
<path d="M0 0 C26.4 0 52.8 0 80 0 C80 0.33 80 0.66 80 1 C79.00202393 1.12846313 79.00202393 1.12846313 77.98388672 1.25952148 C74.94744268 1.6510393 71.91122075 2.04425454 68.875 2.4375 C67.82828125 2.57220703 66.7815625 2.70691406 65.703125 2.84570312 C64.17558594 3.04389648 64.17558594 3.04389648 62.6171875 3.24609375 C61.21895752 3.42676392 61.21895752 3.42676392 59.79248047 3.61108398 C57.89810004 3.87491927 56.00953138 4.18360728 54.12890625 4.53222656 C50.51788842 5.07207598 46.96325271 5.19896316 43.3203125 5.23828125 C42.22467484 5.25038887 42.22467484 5.25038887 41.10690308 5.26274109 C39.56217775 5.27651732 38.01742281 5.28726811 36.47265625 5.29516602 C34.925362 5.30659051 33.3781041 5.32688784 31.83105469 5.35668945 C20.60374548 5.57222874 10.75685641 4.24650476 0 1 C0 0.67 0 0.34 0 0 Z " fill="#FFFFFF" transform="translate(243,539)"/>
<path d="M0 0 C2.01421374 2.01421374 2.66540267 3.25826883 3.7265625 5.84375 C4.0359375 6.59527344 4.3453125 7.34679687 4.6640625 8.12109375 C4.98117188 8.90613281 5.29828125 9.69117188 5.625 10.5 C5.94984375 11.28503906 6.2746875 12.07007813 6.609375 12.87890625 C9 18.73493304 9 18.73493304 9 21 C3.39 21 -2.22 21 -8 21 C-7.17403241 16.04419445 -6.00550306 12.185692 -4 7.6875 C-3.72671875 7.05521484 -3.4534375 6.42292969 -3.171875 5.77148438 C-1.15160714 1.15160714 -1.15160714 1.15160714 0 0 Z " fill="#DCDCDD" transform="translate(166,348)"/>
<path d="M0 0 C0.33 0 0.66 0 1 0 C0.29776886 7.08883852 -0.81068502 14.05145146 -2.0625 21.0625 C-2.24876953 22.11888672 -2.43503906 23.17527344 -2.62695312 24.26367188 C-3.08211204 26.8429057 -3.53984373 29.4216539 -4 32 C-4.33 32 -4.66 32 -5 32 C-5.69668246 8.5450237 -5.69668246 8.5450237 0 0 Z " fill="#FEFEFE" transform="translate(7,205)"/>
<path d="M0 0 C0 3 0 3 -2.5546875 5.91796875 C-3.65369246 7.01564319 -4.76084093 8.10521047 -5.875 9.1875 C-6.43058594 9.74630859 -6.98617188 10.30511719 -7.55859375 10.88085938 C-11.73305861 15 -11.73305861 15 -14 15 C-14 15.66 -14 16.32 -14 17 C-14.66 17 -15.32 17 -16 17 C-16 15.68 -16 14.36 -16 13 C-15.40219727 12.89115479 -14.80439453 12.78230957 -14.18847656 12.67016602 C-11.73838395 11.91988665 -10.75034709 11.10090189 -8.984375 9.27734375 C-8.45585937 8.73916016 -7.92734375 8.20097656 -7.3828125 7.64648438 C-6.57457031 6.80053711 -6.57457031 6.80053711 -5.75 5.9375 C-4.91855469 5.08575195 -4.91855469 5.08575195 -4.0703125 4.21679688 C-2.70665786 2.81787531 -1.35239583 1.40980886 0 0 Z " fill="#7D5AC4" transform="translate(276,155)"/>
<path d="M0 0 C0.66 0.33 1.32 0.66 2 1 C-1.3 4.3 -4.6 7.6 -8 11 C-8.33 10.34 -8.66 9.68 -9 9 C-6.49876949 4.83128248 -4.50584021 2.01577062 0 0 Z " fill="#7CB9DD" transform="translate(338,177)"/>
<path d="M0 0 C3.21524305 1.40844718 5.32183868 3.10344786 7.75 5.625 C8.67039062 6.57246094 8.67039062 6.57246094 9.609375 7.5390625 C10.29773438 8.26222656 10.29773438 8.26222656 11 9 C10.01 9.495 10.01 9.495 9 10 C4.27236232 7.26847601 2.07357484 5.06873851 0 0 Z " fill="#77B6DB" transform="translate(329,195)"/>
</svg>
